<mxfile host="app.diagrams.net" modified="2021-03-09T12:04:44.943Z" agent="5.0 (Macintosh; Intel Mac OS X 10_12_6) AppleWebKit/605.1.15 (KHTML, like Gecko) Version/12.1.2 Safari/605.1.15" etag="yOt071D-xoqTDiD2AWi1" version="14.4.4" type="github">
  <diagram id="OFO7fPkbyBF3vLy-paMu" name="Page-1">
    <mxGraphModel dx="2027" dy="719" grid="1" gridSize="10" guides="1" tooltips="1" connect="1" arrows="1" fold="1" page="1" pageScale="1" pageWidth="827" pageHeight="1169" math="0" shadow="0">
      <root>
        <mxCell id="0" />
        <mxCell id="1" parent="0" />
        <mxCell id="2Pv61kNDZeq2jHX2w0Ap-135" style="edgeStyle=orthogonalEdgeStyle;rounded=0;orthogonalLoop=1;jettySize=auto;html=1;exitX=0.5;exitY=1;exitDx=0;exitDy=0;entryX=0;entryY=0.5;entryDx=0;entryDy=0;" edge="1" parent="1" source="2Pv61kNDZeq2jHX2w0Ap-1" target="2Pv61kNDZeq2jHX2w0Ap-82">
          <mxGeometry relative="1" as="geometry" />
        </mxCell>
        <mxCell id="2Pv61kNDZeq2jHX2w0Ap-1" value="Transaction" style="shape=table;html=1;whiteSpace=wrap;startSize=30;container=1;collapsible=0;childLayout=tableLayout;fixedRows=1;rowLines=0;fontStyle=1;align=center;" vertex="1" parent="1">
          <mxGeometry x="-790" y="210" width="180" height="270" as="geometry" />
        </mxCell>
        <mxCell id="2Pv61kNDZeq2jHX2w0Ap-2" value="" style="shape=partialRectangle;html=1;whiteSpace=wrap;collapsible=0;dropTarget=0;pointerEvents=0;fillColor=none;top=0;left=0;bottom=1;right=0;points=[[0,0.5],[1,0.5]];portConstraint=eastwest;" vertex="1" parent="2Pv61kNDZeq2jHX2w0Ap-1">
          <mxGeometry y="30" width="180" height="30" as="geometry" />
        </mxCell>
        <mxCell id="2Pv61kNDZeq2jHX2w0Ap-3" value="version" style="shape=partialRectangle;html=1;whiteSpace=wrap;connectable=0;fillColor=none;top=0;left=0;bottom=0;right=0;overflow=hidden;" vertex="1" parent="2Pv61kNDZeq2jHX2w0Ap-2">
          <mxGeometry width="90" height="30" as="geometry" />
        </mxCell>
        <mxCell id="2Pv61kNDZeq2jHX2w0Ap-4" value="“1”" style="shape=partialRectangle;html=1;whiteSpace=wrap;connectable=0;fillColor=none;top=0;left=0;bottom=0;right=0;align=center;spacingLeft=6;overflow=hidden;" vertex="1" parent="2Pv61kNDZeq2jHX2w0Ap-2">
          <mxGeometry x="90" width="90" height="30" as="geometry" />
        </mxCell>
        <mxCell id="2Pv61kNDZeq2jHX2w0Ap-5" value="" style="shape=partialRectangle;html=1;whiteSpace=wrap;collapsible=0;dropTarget=0;pointerEvents=0;fillColor=none;top=0;left=0;bottom=1;right=0;points=[[0,0.5],[1,0.5]];portConstraint=eastwest;" vertex="1" parent="2Pv61kNDZeq2jHX2w0Ap-1">
          <mxGeometry y="60" width="180" height="30" as="geometry" />
        </mxCell>
        <mxCell id="2Pv61kNDZeq2jHX2w0Ap-6" value="utxo_deps" style="shape=partialRectangle;html=1;whiteSpace=wrap;connectable=0;fillColor=none;top=0;left=0;bottom=0;right=0;overflow=hidden;" vertex="1" parent="2Pv61kNDZeq2jHX2w0Ap-5">
          <mxGeometry width="90" height="30" as="geometry" />
        </mxCell>
        <mxCell id="2Pv61kNDZeq2jHX2w0Ap-7" value="UtxoDep1" style="shape=partialRectangle;html=1;whiteSpace=wrap;connectable=0;fillColor=none;top=0;left=0;bottom=0;right=0;align=center;spacingLeft=6;overflow=hidden;" vertex="1" parent="2Pv61kNDZeq2jHX2w0Ap-5">
          <mxGeometry x="90" width="90" height="30" as="geometry" />
        </mxCell>
        <mxCell id="2Pv61kNDZeq2jHX2w0Ap-8" value="" style="shape=partialRectangle;html=1;whiteSpace=wrap;collapsible=0;dropTarget=0;pointerEvents=0;fillColor=none;top=0;left=0;bottom=1;right=0;points=[[0,0.5],[1,0.5]];portConstraint=eastwest;" vertex="1" parent="2Pv61kNDZeq2jHX2w0Ap-1">
          <mxGeometry y="90" width="180" height="30" as="geometry" />
        </mxCell>
        <mxCell id="2Pv61kNDZeq2jHX2w0Ap-9" value="header_deps" style="shape=partialRectangle;html=1;whiteSpace=wrap;connectable=0;fillColor=none;top=0;left=0;bottom=0;right=0;overflow=hidden;" vertex="1" parent="2Pv61kNDZeq2jHX2w0Ap-8">
          <mxGeometry width="90" height="30" as="geometry" />
        </mxCell>
        <mxCell id="2Pv61kNDZeq2jHX2w0Ap-10" value="&lt;span style=&quot;font-size: 18px&quot;&gt;.....&lt;/span&gt;" style="shape=partialRectangle;html=1;whiteSpace=wrap;connectable=0;fillColor=none;top=0;left=0;bottom=0;right=0;align=center;spacingLeft=6;overflow=hidden;" vertex="1" parent="2Pv61kNDZeq2jHX2w0Ap-8">
          <mxGeometry x="90" width="90" height="30" as="geometry" />
        </mxCell>
        <mxCell id="2Pv61kNDZeq2jHX2w0Ap-11" value="" style="shape=partialRectangle;html=1;whiteSpace=wrap;collapsible=0;dropTarget=0;pointerEvents=0;fillColor=none;top=0;left=0;bottom=1;right=0;points=[[0,0.5],[1,0.5]];portConstraint=eastwest;" vertex="1" parent="2Pv61kNDZeq2jHX2w0Ap-1">
          <mxGeometry y="120" width="180" height="30" as="geometry" />
        </mxCell>
        <mxCell id="2Pv61kNDZeq2jHX2w0Ap-12" value="inputs" style="shape=partialRectangle;html=1;whiteSpace=wrap;connectable=0;fillColor=none;top=0;left=0;bottom=0;right=0;overflow=hidden;" vertex="1" parent="2Pv61kNDZeq2jHX2w0Ap-11">
          <mxGeometry width="90" height="30" as="geometry" />
        </mxCell>
        <mxCell id="2Pv61kNDZeq2jHX2w0Ap-13" value="Utxoinput1" style="shape=partialRectangle;html=1;whiteSpace=wrap;connectable=0;fillColor=none;top=0;left=0;bottom=0;right=0;align=center;spacingLeft=6;overflow=hidden;" vertex="1" parent="2Pv61kNDZeq2jHX2w0Ap-11">
          <mxGeometry x="90" width="90" height="30" as="geometry" />
        </mxCell>
        <mxCell id="2Pv61kNDZeq2jHX2w0Ap-14" value="" style="shape=partialRectangle;html=1;whiteSpace=wrap;collapsible=0;dropTarget=0;pointerEvents=0;fillColor=none;top=0;left=0;bottom=1;right=0;points=[[0,0.5],[1,0.5]];portConstraint=eastwest;" vertex="1" parent="2Pv61kNDZeq2jHX2w0Ap-1">
          <mxGeometry y="150" width="180" height="30" as="geometry" />
        </mxCell>
        <mxCell id="2Pv61kNDZeq2jHX2w0Ap-15" value="outputs" style="shape=partialRectangle;html=1;whiteSpace=wrap;connectable=0;fillColor=none;top=0;left=0;bottom=0;right=0;overflow=hidden;" vertex="1" parent="2Pv61kNDZeq2jHX2w0Ap-14">
          <mxGeometry width="90" height="30" as="geometry" />
        </mxCell>
        <mxCell id="2Pv61kNDZeq2jHX2w0Ap-16" value="UTXO3" style="shape=partialRectangle;html=1;whiteSpace=wrap;connectable=0;fillColor=none;top=0;left=0;bottom=0;right=0;align=left;spacingLeft=6;overflow=hidden;" vertex="1" parent="2Pv61kNDZeq2jHX2w0Ap-14">
          <mxGeometry x="90" width="90" height="30" as="geometry" />
        </mxCell>
        <mxCell id="2Pv61kNDZeq2jHX2w0Ap-17" value="" style="shape=partialRectangle;html=1;whiteSpace=wrap;collapsible=0;dropTarget=0;pointerEvents=0;fillColor=none;top=0;left=0;bottom=1;right=0;points=[[0,0.5],[1,0.5]];portConstraint=eastwest;" vertex="1" parent="2Pv61kNDZeq2jHX2w0Ap-1">
          <mxGeometry y="180" width="180" height="30" as="geometry" />
        </mxCell>
        <mxCell id="2Pv61kNDZeq2jHX2w0Ap-18" value="outsputs_data" style="shape=partialRectangle;html=1;whiteSpace=wrap;connectable=0;fillColor=none;top=0;left=0;bottom=0;right=0;overflow=hidden;" vertex="1" parent="2Pv61kNDZeq2jHX2w0Ap-17">
          <mxGeometry width="90" height="30" as="geometry" />
        </mxCell>
        <mxCell id="2Pv61kNDZeq2jHX2w0Ap-19" value="&lt;font style=&quot;font-size: 14px&quot;&gt;......&lt;/font&gt;" style="shape=partialRectangle;html=1;whiteSpace=wrap;connectable=0;fillColor=none;top=0;left=0;bottom=0;right=0;align=center;spacingLeft=6;overflow=hidden;" vertex="1" parent="2Pv61kNDZeq2jHX2w0Ap-17">
          <mxGeometry x="90" width="90" height="30" as="geometry" />
        </mxCell>
        <mxCell id="2Pv61kNDZeq2jHX2w0Ap-20" value="" style="shape=partialRectangle;html=1;whiteSpace=wrap;collapsible=0;dropTarget=0;pointerEvents=0;fillColor=none;top=0;left=0;bottom=1;right=0;points=[[0,0.5],[1,0.5]];portConstraint=eastwest;" vertex="1" parent="2Pv61kNDZeq2jHX2w0Ap-1">
          <mxGeometry y="210" width="180" height="30" as="geometry" />
        </mxCell>
        <mxCell id="2Pv61kNDZeq2jHX2w0Ap-21" value="witness" style="shape=partialRectangle;html=1;whiteSpace=wrap;connectable=0;fillColor=none;top=0;left=0;bottom=0;right=0;overflow=hidden;" vertex="1" parent="2Pv61kNDZeq2jHX2w0Ap-20">
          <mxGeometry width="90" height="30" as="geometry" />
        </mxCell>
        <mxCell id="2Pv61kNDZeq2jHX2w0Ap-22" value="[ ]bytes" style="shape=partialRectangle;html=1;whiteSpace=wrap;connectable=0;fillColor=none;top=0;left=0;bottom=0;right=0;align=left;spacingLeft=6;overflow=hidden;" vertex="1" parent="2Pv61kNDZeq2jHX2w0Ap-20">
          <mxGeometry x="90" width="90" height="30" as="geometry" />
        </mxCell>
        <mxCell id="2Pv61kNDZeq2jHX2w0Ap-72" value="VmTransaction" style="shape=table;html=1;whiteSpace=wrap;startSize=30;container=1;collapsible=0;childLayout=tableLayout;fixedRows=1;rowLines=0;fontStyle=1;align=center;" vertex="1" parent="1">
          <mxGeometry x="-180" y="250" width="180" height="210" as="geometry" />
        </mxCell>
        <mxCell id="2Pv61kNDZeq2jHX2w0Ap-73" value="" style="shape=partialRectangle;html=1;whiteSpace=wrap;collapsible=0;dropTarget=0;pointerEvents=0;fillColor=none;top=0;left=0;bottom=1;right=0;points=[[0,0.5],[1,0.5]];portConstraint=eastwest;" vertex="1" parent="2Pv61kNDZeq2jHX2w0Ap-72">
          <mxGeometry y="30" width="180" height="30" as="geometry" />
        </mxCell>
        <mxCell id="2Pv61kNDZeq2jHX2w0Ap-74" value="run_code" style="shape=partialRectangle;html=1;whiteSpace=wrap;connectable=0;fillColor=none;top=0;left=0;bottom=0;right=0;overflow=hidden;" vertex="1" parent="2Pv61kNDZeq2jHX2w0Ap-73">
          <mxGeometry width="90" height="30" as="geometry" />
        </mxCell>
        <mxCell id="2Pv61kNDZeq2jHX2w0Ap-75" value="map&amp;lt; &amp;gt;" style="shape=partialRectangle;html=1;whiteSpace=wrap;connectable=0;fillColor=none;top=0;left=0;bottom=0;right=0;align=left;spacingLeft=6;overflow=hidden;" vertex="1" parent="2Pv61kNDZeq2jHX2w0Ap-73">
          <mxGeometry x="90" width="90" height="30" as="geometry" />
        </mxCell>
        <mxCell id="2Pv61kNDZeq2jHX2w0Ap-126" value="" style="shape=partialRectangle;html=1;whiteSpace=wrap;collapsible=0;dropTarget=0;pointerEvents=0;fillColor=none;top=0;left=0;bottom=1;right=0;points=[[0,0.5],[1,0.5]];portConstraint=eastwest;" vertex="1" parent="2Pv61kNDZeq2jHX2w0Ap-72">
          <mxGeometry y="60" width="180" height="30" as="geometry" />
        </mxCell>
        <mxCell id="2Pv61kNDZeq2jHX2w0Ap-127" value="depoly_code" style="shape=partialRectangle;html=1;whiteSpace=wrap;connectable=0;fillColor=none;top=0;left=0;bottom=0;right=0;overflow=hidden;" vertex="1" parent="2Pv61kNDZeq2jHX2w0Ap-126">
          <mxGeometry width="90" height="30" as="geometry" />
        </mxCell>
        <mxCell id="2Pv61kNDZeq2jHX2w0Ap-128" value="...." style="shape=partialRectangle;html=1;whiteSpace=wrap;connectable=0;fillColor=none;top=0;left=0;bottom=0;right=0;align=center;spacingLeft=6;overflow=hidden;" vertex="1" parent="2Pv61kNDZeq2jHX2w0Ap-126">
          <mxGeometry x="90" width="90" height="30" as="geometry" />
        </mxCell>
        <mxCell id="2Pv61kNDZeq2jHX2w0Ap-76" value="" style="shape=partialRectangle;html=1;whiteSpace=wrap;collapsible=0;dropTarget=0;pointerEvents=0;fillColor=none;top=0;left=0;bottom=1;right=0;points=[[0,0.5],[1,0.5]];portConstraint=eastwest;" vertex="1" parent="2Pv61kNDZeq2jHX2w0Ap-72">
          <mxGeometry y="90" width="180" height="30" as="geometry" />
        </mxCell>
        <mxCell id="2Pv61kNDZeq2jHX2w0Ap-77" value="utxo_deps" style="shape=partialRectangle;html=1;whiteSpace=wrap;connectable=0;fillColor=none;top=0;left=0;bottom=0;right=0;overflow=hidden;" vertex="1" parent="2Pv61kNDZeq2jHX2w0Ap-76">
          <mxGeometry width="90" height="30" as="geometry" />
        </mxCell>
        <mxCell id="2Pv61kNDZeq2jHX2w0Ap-78" value="[ ]UTXO" style="shape=partialRectangle;html=1;whiteSpace=wrap;connectable=0;fillColor=none;top=0;left=0;bottom=0;right=0;align=left;spacingLeft=6;overflow=hidden;" vertex="1" parent="2Pv61kNDZeq2jHX2w0Ap-76">
          <mxGeometry x="90" width="90" height="30" as="geometry" />
        </mxCell>
        <mxCell id="2Pv61kNDZeq2jHX2w0Ap-79" value="" style="shape=partialRectangle;html=1;whiteSpace=wrap;collapsible=0;dropTarget=0;pointerEvents=0;fillColor=none;top=0;left=0;bottom=1;right=0;points=[[0,0.5],[1,0.5]];portConstraint=eastwest;" vertex="1" parent="2Pv61kNDZeq2jHX2w0Ap-72">
          <mxGeometry y="120" width="180" height="30" as="geometry" />
        </mxCell>
        <mxCell id="2Pv61kNDZeq2jHX2w0Ap-80" value="utxo_inputs" style="shape=partialRectangle;html=1;whiteSpace=wrap;connectable=0;fillColor=none;top=0;left=0;bottom=0;right=0;overflow=hidden;" vertex="1" parent="2Pv61kNDZeq2jHX2w0Ap-79">
          <mxGeometry width="90" height="30" as="geometry" />
        </mxCell>
        <mxCell id="2Pv61kNDZeq2jHX2w0Ap-81" value="[ ]UTXO" style="shape=partialRectangle;html=1;whiteSpace=wrap;connectable=0;fillColor=none;top=0;left=0;bottom=0;right=0;align=left;spacingLeft=6;overflow=hidden;" vertex="1" parent="2Pv61kNDZeq2jHX2w0Ap-79">
          <mxGeometry x="90" width="90" height="30" as="geometry" />
        </mxCell>
        <mxCell id="2Pv61kNDZeq2jHX2w0Ap-82" value="" style="shape=partialRectangle;html=1;whiteSpace=wrap;collapsible=0;dropTarget=0;pointerEvents=0;fillColor=none;top=0;left=0;bottom=1;right=0;points=[[0,0.5],[1,0.5]];portConstraint=eastwest;" vertex="1" parent="2Pv61kNDZeq2jHX2w0Ap-72">
          <mxGeometry y="150" width="180" height="30" as="geometry" />
        </mxCell>
        <mxCell id="2Pv61kNDZeq2jHX2w0Ap-83" value="transaction" style="shape=partialRectangle;html=1;whiteSpace=wrap;connectable=0;fillColor=none;top=0;left=0;bottom=0;right=0;overflow=hidden;" vertex="1" parent="2Pv61kNDZeq2jHX2w0Ap-82">
          <mxGeometry width="90" height="30" as="geometry" />
        </mxCell>
        <mxCell id="2Pv61kNDZeq2jHX2w0Ap-84" value="Transaction" style="shape=partialRectangle;html=1;whiteSpace=wrap;connectable=0;fillColor=none;top=0;left=0;bottom=0;right=0;align=left;spacingLeft=6;overflow=hidden;" vertex="1" parent="2Pv61kNDZeq2jHX2w0Ap-82">
          <mxGeometry x="90" width="90" height="30" as="geometry" />
        </mxCell>
        <mxCell id="2Pv61kNDZeq2jHX2w0Ap-120" style="edgeStyle=orthogonalEdgeStyle;rounded=0;orthogonalLoop=1;jettySize=auto;html=1;exitX=1;exitY=0.5;exitDx=0;exitDy=0;entryX=0;entryY=0.5;entryDx=0;entryDy=0;" edge="1" parent="1" source="2Pv61kNDZeq2jHX2w0Ap-116" target="2Pv61kNDZeq2jHX2w0Ap-76">
          <mxGeometry relative="1" as="geometry" />
        </mxCell>
        <mxCell id="2Pv61kNDZeq2jHX2w0Ap-121" style="edgeStyle=orthogonalEdgeStyle;rounded=0;orthogonalLoop=1;jettySize=auto;html=1;exitX=1;exitY=0.5;exitDx=0;exitDy=0;entryX=0;entryY=0.5;entryDx=0;entryDy=0;" edge="1" parent="1" source="2Pv61kNDZeq2jHX2w0Ap-116" target="2Pv61kNDZeq2jHX2w0Ap-79">
          <mxGeometry relative="1" as="geometry" />
        </mxCell>
        <mxCell id="2Pv61kNDZeq2jHX2w0Ap-129" style="edgeStyle=orthogonalEdgeStyle;rounded=0;orthogonalLoop=1;jettySize=auto;html=1;exitX=0.5;exitY=1;exitDx=0;exitDy=0;entryX=0.5;entryY=0;entryDx=0;entryDy=0;" edge="1" parent="1" source="2Pv61kNDZeq2jHX2w0Ap-116" target="2Pv61kNDZeq2jHX2w0Ap-122">
          <mxGeometry relative="1" as="geometry" />
        </mxCell>
        <mxCell id="2Pv61kNDZeq2jHX2w0Ap-116" value="«interface»&lt;br&gt;&lt;b&gt;getlistUtxo&lt;/b&gt;" style="html=1;" vertex="1" parent="1">
          <mxGeometry x="-440" y="190" width="120" height="50" as="geometry" />
        </mxCell>
        <mxCell id="2Pv61kNDZeq2jHX2w0Ap-117" style="edgeStyle=orthogonalEdgeStyle;rounded=0;orthogonalLoop=1;jettySize=auto;html=1;exitX=1;exitY=0.5;exitDx=0;exitDy=0;entryX=0;entryY=0.5;entryDx=0;entryDy=0;" edge="1" parent="1" source="2Pv61kNDZeq2jHX2w0Ap-5" target="2Pv61kNDZeq2jHX2w0Ap-116">
          <mxGeometry relative="1" as="geometry" />
        </mxCell>
        <mxCell id="2Pv61kNDZeq2jHX2w0Ap-132" value="&lt;font style=&quot;font-size: 14px&quot;&gt;outpoint&lt;/font&gt;" style="edgeLabel;html=1;align=center;verticalAlign=middle;resizable=0;points=[];" vertex="1" connectable="0" parent="2Pv61kNDZeq2jHX2w0Ap-117">
          <mxGeometry x="-0.6375" y="2" relative="1" as="geometry">
            <mxPoint as="offset" />
          </mxGeometry>
        </mxCell>
        <mxCell id="2Pv61kNDZeq2jHX2w0Ap-119" style="edgeStyle=orthogonalEdgeStyle;rounded=0;orthogonalLoop=1;jettySize=auto;html=1;exitX=1;exitY=0.5;exitDx=0;exitDy=0;entryX=0;entryY=0.5;entryDx=0;entryDy=0;" edge="1" parent="1" source="2Pv61kNDZeq2jHX2w0Ap-11" target="2Pv61kNDZeq2jHX2w0Ap-116">
          <mxGeometry relative="1" as="geometry" />
        </mxCell>
        <mxCell id="2Pv61kNDZeq2jHX2w0Ap-134" value="&lt;font style=&quot;font-size: 14px&quot;&gt;outpoint&lt;/font&gt;" style="edgeLabel;html=1;align=center;verticalAlign=middle;resizable=0;points=[];" vertex="1" connectable="0" parent="2Pv61kNDZeq2jHX2w0Ap-119">
          <mxGeometry x="-0.66" y="-1" relative="1" as="geometry">
            <mxPoint as="offset" />
          </mxGeometry>
        </mxCell>
        <mxCell id="2Pv61kNDZeq2jHX2w0Ap-131" style="edgeStyle=orthogonalEdgeStyle;rounded=0;orthogonalLoop=1;jettySize=auto;html=1;exitX=1;exitY=0.5;exitDx=0;exitDy=0;" edge="1" parent="1" source="2Pv61kNDZeq2jHX2w0Ap-122" target="2Pv61kNDZeq2jHX2w0Ap-73">
          <mxGeometry relative="1" as="geometry">
            <Array as="points">
              <mxPoint x="-230" y="345" />
              <mxPoint x="-230" y="295" />
            </Array>
          </mxGeometry>
        </mxCell>
        <mxCell id="2Pv61kNDZeq2jHX2w0Ap-122" value="«interface»(未实现)&lt;br&gt;&lt;b&gt;getByteCodeByHash&lt;/b&gt;" style="html=1;" vertex="1" parent="1">
          <mxGeometry x="-440" y="320" width="120" height="50" as="geometry" />
        </mxCell>
        <mxCell id="2Pv61kNDZeq2jHX2w0Ap-130" style="edgeStyle=orthogonalEdgeStyle;rounded=0;orthogonalLoop=1;jettySize=auto;html=1;exitX=1;exitY=0.5;exitDx=0;exitDy=0;entryX=0;entryY=0.5;entryDx=0;entryDy=0;" edge="1" parent="1" source="2Pv61kNDZeq2jHX2w0Ap-14" target="2Pv61kNDZeq2jHX2w0Ap-122">
          <mxGeometry relative="1" as="geometry">
            <Array as="points">
              <mxPoint x="-500" y="375" />
              <mxPoint x="-500" y="345" />
            </Array>
          </mxGeometry>
        </mxCell>
      </root>
    </mxGraphModel>
  </diagram>
</mxfile>
